# xmcd
#
# Track frame offsets: 
#        150
#        17923
#        32639
#        50118
#        64054
#        76867
#        88918
#        105819
#        123700
#        138903
#        151288
#
# Disc length: 2249 seconds
#
# Revision: 0
# Processed by: cddbd v1.5.2PL0 Copyright (c) Steve Scherf et al.
# Submitted via: ExactAudioCopy v0.99pb3
#
DISCID=8a08c70b
DTITLE=Hobo Rhythm and Blues Band - Hobo Bluesband
DYEAR=1996
DGENRE=Blues
TTITLE0=Jag Ska Flytta Ut På Landet och Måla Brevlådan Blå
TTITLE1=Fähund
TTITLE2=Kall Kvinna Med Varm Själ
TTITLE3=Hokus Pokusman
TTITLE4=Ilsken, Arg å lé
TTITLE5=Sweet Emma
TTITLE6=Blues ABC
TTITLE7=Ångbåtsblues
TTITLE8=Mitt Hjärta Det Blöder
TTITLE9=Zombie
TTITLE10=Boogieman
EXTD=
EXTT0=
EXTT1=
EXTT2=
EXTT3=
EXTT4=
EXTT5=
EXTT6=
EXTT7=
EXTT8=
EXTT9=
EXTT10=
PLAYORDER=
